<svg xmlns="http://www.w3.org/2000/svg" viewBox="0 0 1000 1000"><defs><style>.cls-1{opacity:0.8;}.cls-2{fill:#5f4b8b;}.cls-3{fill:#f9ac2f;}.cls-4{fill:#eee78e;}.cls-5{fill:#fdb2a8;}.cls-6{fill:#d32e5e;}.cls-7{fill:#0078a7;}.cls-8{fill:#b66ba3;}.cls-9{fill:#bed38e;}</style></defs><title>画板 22</title><g id="图层_3" data-name="图层 3"><g class="cls-1"><path class="cls-2" d="M235,560H155c-30.94,0-45.73-16.6-52.69-30.53A72.56,72.56,0,0,1,95,500V400c0-30.94,16.6-45.73,30.53-52.69A72.56,72.56,0,0,1,155,340c30.94,0,45.73,16.6,52.69,30.53A72.56,72.56,0,0,1,215,400c0,30.94-16.6,45.73-30.53,52.69A72.56,72.56,0,0,1,155,460a10,10,0,0,1,0-20,52.63,52.63,0,0,0,21.1-5.47C188.8,427.93,195,416.64,195,400a52.75,52.75,0,0,0-5.47-21.06C182.93,366.2,171.64,360,155,360a52.75,52.75,0,0,0-21.06,5.47C121.2,372.07,115,383.36,115,400V500a52.75,52.75,0,0,0,5.47,21.06C127.07,533.8,138.36,540,155,540h80a77.87,77.87,0,0,0,31.09-8c19.18-9.83,28.91-27.33,28.91-52a10,10,0,0,1,20,0c0,41.27-22,61-40.53,70.19A97.24,97.24,0,0,1,235,560Z"/></g><g class="cls-1"><path class="cls-3" d="M495,560H415c-29.35,0-40-23.92-40-40V410a10,10,0,0,1,20,0V520h0a27.67,27.67,0,0,0,2.93,11c3.27,6.15,8.69,9,17.07,9h80a52.84,52.84,0,0,0,21.06-5.46C528.8,527.93,535,516.64,535,500a52.84,52.84,0,0,0-5.46-21.06C522.93,466.2,511.64,460,495,460a52.84,52.84,0,0,0-21.06,5.46C461.2,472.07,455,483.36,455,500a10,10,0,0,1-20,0c0-30.94,16.6-45.73,30.53-52.69A72.56,72.56,0,0,1,495,440c30.94,0,45.73,16.6,52.69,30.53A72.56,72.56,0,0,1,555,500c0,30.94-16.6,45.73-30.53,52.69A72.56,72.56,0,0,1,495,560Z"/></g><g class="cls-1"><path class="cls-4" d="M425,460H345a10,10,0,0,1,0-20h80a10,10,0,0,1,0,20Z"/></g><g class="cls-1"><path class="cls-5" d="M815,550a60,60,0,1,1,60-60A60.07,60.07,0,0,1,815,550Zm0-100a40,40,0,1,0,40,40A40,40,0,0,0,815,450Z"/></g><g class="cls-1"><circle class="cls-2" cx="305" cy="400" r="10"/></g><g class="cls-1"><circle class="cls-6" cx="725" cy="400" r="10"/></g><g class="cls-1"><path class="cls-6" d="M585,660a10,10,0,0,1-10-10V500a72.56,72.56,0,0,1,7.31-29.47C589.27,456.6,604.06,440,635,440a72.56,72.56,0,0,1,29.47,7.31C678.4,454.27,695,469.06,695,500a72.56,72.56,0,0,1-7.31,29.47C680.73,543.4,665.94,560,635,560c-12.06,0-30-8-30-30s17.94-30,30-30c0,0,9.5,0,9.5,9.88C644.5,520,635,520,635,520h.12a15,15,0,0,0-6,1.64c-2,1.12-4.1,3-4.1,8.36s2.07,7.24,4.1,8.36a15.11,15.11,0,0,0,6,1.64c39.46-.06,39.92-38.37,39.92-40,0-39.54-38.37-40-40-40-39.54,0-40,38.37-40,40V650A10,10,0,0,1,585,660Z"/></g><g class="cls-1"><path class="cls-7" d="M305,560a10,10,0,0,1-10-10V460h0a27.67,27.67,0,0,0-2.93-11c-3.27-6.15-8.69-9-17.07-9-8.58,0-14.07,3-17.31,9.47A28.2,28.2,0,0,0,255,460a10,10,0,0,1-20,0c0-16.08,10.65-40,40-40s40,23.92,40,40v90A10,10,0,0,1,305,560Z"/></g><g class="cls-1"><path class="cls-8" d="M245,510a10,10,0,0,1-10-10V350a10,10,0,0,1,20,0V500A10,10,0,0,1,245,510Z"/></g><g class="cls-1"><path class="cls-9" d="M895,550c-29.35,0-40-23.92-40-40V430c0-8.58-3-14.07-9.47-17.31A28.2,28.2,0,0,0,835,410H775a10,10,0,0,1,0-20h60c16.08,0,40,10.65,40,40v80h0a27.67,27.67,0,0,0,2.93,11c3.27,6.15,8.69,9,17.07,9a10,10,0,0,1,0,20Z"/></g><g class="cls-1"><path class="cls-8" d="M635,520a10,10,0,0,1,0-20h69.94a15,15,0,0,0,6-1.62c2-1.11,4.09-3,4.09-8.38V440a10,10,0,0,1,20,0v50c0,10.82-4.43,17.5-8.15,21.21C718.23,519.8,706.26,520,705,520Z"/></g></g></svg>